<svg xmlns="http://www.w3.org/2000/svg" width="187.5" viewBox="0 0 187.5 93.75" height="93.75" version="1.0"><g><g><g><path d="M 12.390625 0.53125 C 10.722656 -4.757812 8.984375 -9.96875 7.171875 -15.09375 L 6.90625 -15.09375 C 6.90625 -14.84375 6.859375 -14.023438 6.765625 -12.640625 C 6.679688 -11.265625 6.609375 -10.125 6.546875 -9.21875 C 6.273438 -5.476562 6.140625 -3.460938 6.140625 -3.171875 C 6.140625 -2.460938 6.5 -2.109375 7.21875 -2.109375 L 8.34375 -2.140625 L 8.546875 -1.96875 L 8.1875 0.140625 C 6.3125 0.046875 5.007812 0 4.28125 0 C 3.757812 0 3.132812 0.03125 2.40625 0.09375 C 1.6875 0.164062 1.207031 0.222656 0.96875 0.265625 L 1.171875 -1.90625 C 1.816406 -1.96875 2.28125 -2.171875 2.5625 -2.515625 C 2.851562 -2.859375 3.066406 -3.457031 3.203125 -4.3125 C 3.398438 -6.039062 3.671875 -8.628906 4.015625 -12.078125 C 4.367188 -15.535156 4.546875 -17.429688 4.546875 -17.765625 C 4.546875 -18.367188 4.367188 -18.78125 4.015625 -19 C 3.671875 -19.21875 3 -19.375 2 -19.46875 L 1.84375 -19.671875 L 2.140625 -21.609375 C 3.960938 -21.492188 5.351562 -21.4375 6.3125 -21.4375 C 6.800781 -21.4375 7.976562 -21.476562 9.84375 -21.5625 C 10.738281 -18.425781 11.976562 -14.34375 13.5625 -9.3125 L 14.125 -7.578125 L 14.390625 -7.578125 C 14.523438 -8.023438 14.703125 -8.585938 14.921875 -9.265625 C 15.148438 -9.941406 15.382812 -10.671875 15.625 -11.453125 C 16.757812 -14.835938 17.835938 -18.175781 18.859375 -21.46875 C 19.328125 -21.46875 19.707031 -21.457031 20 -21.4375 L 21.765625 -21.40625 L 22.8125 -21.4375 C 23.269531 -21.4375 23.863281 -21.457031 24.59375 -21.5 C 25.332031 -21.539062 25.875 -21.585938 26.21875 -21.640625 L 26.34375 -21.5 L 26.140625 -19.5 C 25.179688 -19.40625 24.53125 -19.234375 24.1875 -18.984375 C 23.84375 -18.742188 23.671875 -18.328125 23.671875 -17.734375 C 23.671875 -17.035156 23.757812 -15.28125 23.9375 -12.46875 C 24.113281 -9.65625 24.289062 -7.222656 24.46875 -5.171875 C 24.601562 -3.953125 24.773438 -3.132812 24.984375 -2.71875 C 25.203125 -2.3125 25.578125 -2.109375 26.109375 -2.109375 C 26.359375 -2.109375 26.566406 -2.117188 26.734375 -2.140625 C 26.898438 -2.160156 27.003906 -2.171875 27.046875 -2.171875 L 27.1875 -2 L 26.875 0.09375 C 26.539062 0.09375 26.242188 0.0820312 25.984375 0.0625 C 25.003906 0.0195312 24.175781 0 23.5 0 C 22.851562 0 22 0.03125 20.9375 0.09375 C 19.882812 0.164062 19.160156 0.222656 18.765625 0.265625 L 19 -1.90625 C 19.664062 -1.988281 20.144531 -2.160156 20.4375 -2.421875 C 20.726562 -2.679688 20.875 -3.066406 20.875 -3.578125 C 20.875 -3.660156 20.785156 -5.039062 20.609375 -7.71875 C 20.359375 -11.207031 20.210938 -13.664062 20.171875 -15.09375 L 19.875 -15.09375 C 18 -9.882812 16.257812 -4.773438 14.65625 0.234375 Z M 12.390625 0.53125" transform="translate(4.826 40.575)"/></g></g></g><g><g><g><path d="M 11.046875 0 L 11.21875 -1.96875 C 11.976562 -2.03125 12.53125 -2.097656 12.875 -2.171875 C 13.21875 -2.253906 13.457031 -2.367188 13.59375 -2.515625 C 13.726562 -2.660156 13.796875 -2.878906 13.796875 -3.171875 C 13.796875 -3.441406 13.738281 -3.832031 13.625 -4.34375 L 12.921875 -6.90625 C 11.765625 -6.957031 10.738281 -6.984375 9.84375 -6.984375 C 9.445312 -6.984375 8.613281 -6.925781 7.34375 -6.8125 L 6.640625 -6.75 L 5.8125 -4.171875 C 5.675781 -3.679688 5.609375 -3.335938 5.609375 -3.140625 C 5.609375 -2.734375 5.722656 -2.453125 5.953125 -2.296875 C 6.191406 -2.140625 6.597656 -2.0625 7.171875 -2.0625 L 8.609375 -2.0625 L 8.78125 -1.84375 L 8.546875 0.203125 C 8.234375 0.179688 7.566406 0.140625 6.546875 0.078125 C 5.523438 0.0234375 4.566406 0 3.671875 0 C 2.734375 0 1.890625 0.0078125 1.140625 0.03125 C 0.398438 0.0507812 -0.0859375 0.0703125 -0.328125 0.09375 L -0.09375 -2.0625 C 0.414062 -2.15625 0.835938 -2.367188 1.171875 -2.703125 C 1.503906 -3.035156 1.816406 -3.582031 2.109375 -4.34375 L 8.078125 -21.265625 L 13.1875 -21.796875 L 13.5625 -21.640625 C 13.894531 -20.367188 14.585938 -17.769531 15.640625 -13.84375 C 16.703125 -9.914062 17.609375 -6.757812 18.359375 -4.375 C 18.609375 -3.570312 18.921875 -3.003906 19.296875 -2.671875 C 19.679688 -2.335938 20.25 -2.132812 21 -2.0625 L 21.140625 -1.84375 L 20.90625 0.09375 C 20.613281 0.0703125 20.066406 0.0507812 19.265625 0.03125 C 18.460938 0.0078125 17.648438 0 16.828125 0 C 15.648438 0 14.5 0.0351562 13.375 0.109375 C 12.25 0.191406 11.53125 0.242188 11.21875 0.265625 Z M 9.84375 -9.546875 C 10.09375 -9.546875 10.921875 -9.582031 12.328125 -9.65625 L 10.34375 -17.09375 L 9.921875 -17.09375 L 7.453125 -9.546875 Z M 9.84375 -9.546875" transform="translate(42.56 40.575)"/></g></g></g><g><g><g><path d="M 17.15625 0.53125 C 15.71875 0.53125 14.503906 -0.503906 13.515625 -2.578125 L 10.625 -8.453125 L 8.25 -8.453125 L 8.1875 -4.671875 C 8.1875 -3.890625 8.238281 -3.328125 8.34375 -2.984375 C 8.457031 -2.640625 8.671875 -2.410156 8.984375 -2.296875 C 9.296875 -2.191406 9.828125 -2.128906 10.578125 -2.109375 L 10.6875 -1.90625 L 10.390625 0.140625 C 9.984375 0.109375 9.28125 0.0820312 8.28125 0.0625 C 7.28125 0.0390625 6.359375 0.03125 5.515625 0.03125 C 4.691406 0.03125 3.84375 0.0507812 2.96875 0.09375 C 2.101562 0.144531 1.535156 0.179688 1.265625 0.203125 L 1.5625 -2 C 2.5 -2.113281 3.128906 -2.359375 3.453125 -2.734375 C 3.773438 -3.117188 3.9375 -3.785156 3.9375 -4.734375 L 3.9375 -17.65625 C 3.9375 -18.300781 3.863281 -18.734375 3.71875 -18.953125 C 3.570312 -19.179688 3.289062 -19.296875 2.875 -19.296875 C 2.625 -19.296875 2.390625 -19.285156 2.171875 -19.265625 C 1.953125 -19.242188 1.804688 -19.234375 1.734375 -19.234375 L 1.53125 -19.5 L 1.84375 -21.5 C 2.144531 -21.5 2.710938 -21.488281 3.546875 -21.46875 C 4.390625 -21.445312 5.210938 -21.4375 6.015625 -21.4375 C 6.898438 -21.4375 7.859375 -21.453125 8.890625 -21.484375 C 9.929688 -21.515625 10.648438 -21.539062 11.046875 -21.5625 C 13.585938 -21.5625 15.53125 -21.070312 16.875 -20.09375 C 18.226562 -19.113281 18.90625 -17.703125 18.90625 -15.859375 C 18.90625 -14.546875 18.515625 -13.34375 17.734375 -12.25 C 16.953125 -11.164062 15.835938 -10.253906 14.390625 -9.515625 L 17.328125 -4.734375 C 17.953125 -3.710938 18.550781 -2.976562 19.125 -2.53125 C 19.707031 -2.09375 20.351562 -1.875 21.0625 -1.875 L 21.296875 -1.5625 L 21.0625 0.171875 Z M 11.359375 -11.015625 C 12.085938 -11.328125 12.75 -11.789062 13.34375 -12.40625 C 13.945312 -13.019531 14.25 -13.972656 14.25 -15.265625 C 14.25 -16.484375 13.835938 -17.394531 13.015625 -18 C 12.191406 -18.601562 10.925781 -18.90625 9.21875 -18.90625 C 8.988281 -18.90625 8.832031 -18.859375 8.75 -18.765625 C 8.675781 -18.671875 8.628906 -18.472656 8.609375 -18.171875 C 8.484375 -15.867188 8.394531 -13.597656 8.34375 -11.359375 Z M 11.359375 -11.015625" transform="translate(73.083 40.575)"/></g></g></g><g><g><g><path d="M 6.078125 0 C 5.296875 0 4.378906 0.0390625 3.328125 0.125 C 2.285156 0.21875 1.597656 0.285156 1.265625 0.328125 L 1.5 -1.875 C 2.457031 -2.050781 3.101562 -2.320312 3.4375 -2.6875 C 3.769531 -3.050781 3.9375 -3.671875 3.9375 -4.546875 L 3.96875 -17.625 C 3.96875 -18.25 3.890625 -18.679688 3.734375 -18.921875 C 3.578125 -19.171875 3.300781 -19.296875 2.90625 -19.296875 C 2.6875 -19.296875 2.460938 -19.285156 2.234375 -19.265625 C 2.015625 -19.242188 1.859375 -19.234375 1.765625 -19.234375 L 1.53125 -19.5 L 1.84375 -21.5 C 2.195312 -21.5 2.84375 -21.488281 3.78125 -21.46875 C 4.726562 -21.445312 5.613281 -21.4375 6.4375 -21.4375 C 7.289062 -21.4375 8.238281 -21.457031 9.28125 -21.5 C 10.332031 -21.539062 11.066406 -21.578125 11.484375 -21.609375 C 13.773438 -21.609375 15.519531 -21.160156 16.71875 -20.265625 C 17.925781 -19.378906 18.53125 -18.097656 18.53125 -16.421875 C 18.53125 -15.316406 18.210938 -14.332031 17.578125 -13.46875 C 16.941406 -12.613281 16.054688 -11.894531 14.921875 -11.3125 C 16.367188 -10.9375 17.519531 -10.335938 18.375 -9.515625 C 19.238281 -8.691406 19.671875 -7.632812 19.671875 -6.34375 C 19.671875 -5.03125 19.304688 -3.863281 18.578125 -2.84375 C 17.859375 -1.832031 16.847656 -1.050781 15.546875 -0.5 C 14.242188 0.0507812 12.734375 0.328125 11.015625 0.328125 C 10.753906 0.328125 10.390625 0.304688 9.921875 0.265625 C 9.453125 0.222656 9.09375 0.191406 8.84375 0.171875 C 8.5625 0.148438 8.117188 0.113281 7.515625 0.0625 C 6.910156 0.0195312 6.429688 0 6.078125 0 Z M 8.375 -12.28125 C 8.644531 -12.257812 9.179688 -12.203125 9.984375 -12.109375 C 10.785156 -12.023438 11.320312 -11.984375 11.59375 -11.984375 C 11.59375 -11.941406 11.804688 -12.054688 12.234375 -12.328125 C 12.671875 -12.609375 13.0625 -13.015625 13.40625 -13.546875 C 13.75 -14.085938 13.921875 -14.769531 13.921875 -15.59375 C 13.921875 -16.726562 13.539062 -17.5625 12.78125 -18.09375 C 12.03125 -18.632812 10.851562 -18.90625 9.25 -18.90625 C 9.03125 -18.90625 8.878906 -18.859375 8.796875 -18.765625 C 8.722656 -18.671875 8.671875 -18.503906 8.640625 -18.265625 C 8.515625 -16.460938 8.425781 -14.46875 8.375 -12.28125 Z M 8.1875 -4.4375 C 8.1875 -3.726562 8.429688 -3.222656 8.921875 -2.921875 C 9.410156 -2.617188 10.222656 -2.46875 11.359375 -2.46875 C 12.441406 -2.46875 13.296875 -2.769531 13.921875 -3.375 C 14.546875 -3.976562 14.859375 -4.800781 14.859375 -5.84375 C 14.859375 -6.757812 14.5625 -7.519531 13.96875 -8.125 C 13.382812 -8.738281 12.535156 -9.171875 11.421875 -9.421875 L 8.3125 -9.375 Z M 8.1875 -4.4375" transform="translate(104.14 40.575)"/></g></g></g><g><g><g><path d="M 1.703125 -1.90625 C 2.546875 -2.039062 3.125 -2.304688 3.4375 -2.703125 C 3.75 -3.109375 3.90625 -3.800781 3.90625 -4.78125 L 3.9375 -17.5625 C 3.9375 -18.25 3.859375 -18.707031 3.703125 -18.9375 C 3.546875 -19.175781 3.222656 -19.296875 2.734375 -19.296875 L 1.703125 -19.265625 L 1.53125 -19.53125 L 1.796875 -21.46875 L 6.28125 -21.4375 C 6.90625 -21.4375 7.8125 -21.46875 9 -21.53125 C 10.1875 -21.601562 10.972656 -21.648438 11.359375 -21.671875 L 11.125 -19.359375 C 10.363281 -19.273438 9.8125 -19.148438 9.46875 -18.984375 C 9.125 -18.816406 8.898438 -18.582031 8.796875 -18.28125 C 8.691406 -17.976562 8.617188 -17.503906 8.578125 -16.859375 C 8.335938 -13.523438 8.21875 -9.441406 8.21875 -4.609375 C 8.21875 -4.003906 8.269531 -3.5625 8.375 -3.28125 C 8.488281 -3.007812 8.691406 -2.820312 8.984375 -2.71875 C 9.273438 -2.625 9.71875 -2.578125 10.3125 -2.578125 C 11.425781 -2.578125 12.253906 -2.695312 12.796875 -2.9375 C 13.347656 -3.1875 13.753906 -3.65625 14.015625 -4.34375 C 14.285156 -5.03125 14.507812 -6.117188 14.6875 -7.609375 L 17.390625 -7.90625 L 17.625 -7.578125 C 17.5625 -7.148438 17.4375 -6.195312 17.25 -4.71875 C 17.0625 -3.238281 16.898438 -1.6875 16.765625 -0.0625 L 16.421875 0.265625 C 15.828125 0.242188 14.523438 0.191406 12.515625 0.109375 C 10.515625 0.0351562 8.703125 0 7.078125 0 C 5.859375 0 4.691406 0.0390625 3.578125 0.125 C 2.460938 0.21875 1.75 0.285156 1.4375 0.328125 Z M 1.703125 -1.90625" transform="translate(134.728 40.575)"/></g></g></g><g><g><g><path d="M 18.59375 -6.3125 C 18.238281 -4.570312 17.941406 -2.515625 17.703125 -0.140625 L 17.359375 0.234375 C 13.109375 0.078125 9.648438 0 6.984375 0 C 5.109375 0 3.203125 0.109375 1.265625 0.328125 L 1.5 -1.90625 C 2.4375 -2.039062 3.070312 -2.304688 3.40625 -2.703125 C 3.738281 -3.109375 3.90625 -3.800781 3.90625 -4.78125 L 3.9375 -17.5 C 3.9375 -18.226562 3.867188 -18.707031 3.734375 -18.9375 C 3.609375 -19.175781 3.320312 -19.296875 2.875 -19.296875 C 2.582031 -19.296875 2.238281 -19.273438 1.84375 -19.234375 L 1.640625 -19.53125 L 1.90625 -21.53125 L 2.578125 -21.53125 C 4.148438 -21.46875 5.941406 -21.4375 7.953125 -21.4375 C 12.910156 -21.4375 16.289062 -21.570312 18.09375 -21.84375 L 18.359375 -21.46875 C 18.179688 -20.644531 18.019531 -19.664062 17.875 -18.53125 C 17.726562 -17.394531 17.632812 -16.359375 17.59375 -15.421875 L 14.625 -15.21875 L 14.6875 -16.5625 C 14.6875 -17.226562 14.59375 -17.695312 14.40625 -17.96875 C 14.21875 -18.25 13.835938 -18.441406 13.265625 -18.546875 C 12.703125 -18.648438 11.753906 -18.703125 10.421875 -18.703125 C 9.835938 -18.703125 9.429688 -18.675781 9.203125 -18.625 C 8.984375 -18.582031 8.832031 -18.484375 8.75 -18.328125 C 8.675781 -18.171875 8.628906 -17.914062 8.609375 -17.5625 L 8.375 -12.328125 L 11.515625 -12.28125 C 11.984375 -12.28125 12.566406 -12.304688 13.265625 -12.359375 C 13.972656 -12.421875 14.679688 -12.5 15.390625 -12.59375 L 15.65625 -12.28125 L 15.1875 -9.453125 C 14.90625 -9.453125 14.6875 -9.460938 14.53125 -9.484375 C 12.96875 -9.523438 11.726562 -9.546875 10.8125 -9.546875 C 10.125 -9.546875 9.269531 -9.476562 8.25 -9.34375 L 8.1875 -4.578125 C 8.1875 -3.953125 8.234375 -3.503906 8.328125 -3.234375 C 8.429688 -2.972656 8.617188 -2.796875 8.890625 -2.703125 C 9.171875 -2.617188 9.65625 -2.578125 10.34375 -2.578125 C 11.820312 -2.578125 12.890625 -2.660156 13.546875 -2.828125 C 14.203125 -2.992188 14.671875 -3.332031 14.953125 -3.84375 C 15.242188 -4.351562 15.46875 -5.195312 15.625 -6.375 L 18.359375 -6.609375 Z M 18.59375 -6.3125" transform="translate(162.078 40.575)"/></g></g></g><g><g><g><path d="M 10.625 0.40625 C 10.257812 0.351562 9.523438 0.269531 8.421875 0.15625 C 7.328125 0.0507812 6.378906 0 5.578125 0 C 4.835938 0 4.007812 0.0390625 3.09375 0.125 C 2.1875 0.21875 1.597656 0.285156 1.328125 0.328125 L 1.53125 -1.90625 C 2.488281 -2.0625 3.132812 -2.335938 3.46875 -2.734375 C 3.800781 -3.140625 3.96875 -3.804688 3.96875 -4.734375 L 3.96875 -17.46875 C 3.96875 -18.175781 3.898438 -18.648438 3.765625 -18.890625 C 3.640625 -19.140625 3.363281 -19.265625 2.9375 -19.265625 C 2.695312 -19.265625 2.460938 -19.253906 2.234375 -19.234375 C 2.015625 -19.210938 1.867188 -19.203125 1.796875 -19.203125 L 1.640625 -19.5 L 1.90625 -21.53125 C 2.21875 -21.53125 2.796875 -21.515625 3.640625 -21.484375 C 4.484375 -21.453125 5.304688 -21.4375 6.109375 -21.4375 C 7.085938 -21.4375 8.109375 -21.453125 9.171875 -21.484375 C 10.242188 -21.515625 10.984375 -21.539062 11.390625 -21.5625 C 13.609375 -21.5625 15.53125 -21.160156 17.15625 -20.359375 C 18.78125 -19.566406 20.023438 -18.421875 20.890625 -16.921875 C 21.765625 -15.429688 22.203125 -13.65625 22.203125 -11.59375 C 22.203125 -9.269531 21.707031 -7.195312 20.71875 -5.375 C 19.726562 -3.550781 18.351562 -2.128906 16.59375 -1.109375 C 14.832031 -0.0976562 12.84375 0.40625 10.625 0.40625 Z M 9.578125 -18.765625 C 9.222656 -18.765625 8.976562 -18.707031 8.84375 -18.59375 C 8.707031 -18.488281 8.628906 -18.28125 8.609375 -17.96875 C 8.328125 -11.75 8.1875 -7.375 8.1875 -4.84375 C 8.1875 -4.175781 8.257812 -3.671875 8.40625 -3.328125 C 8.5625 -2.984375 8.847656 -2.742188 9.265625 -2.609375 C 9.679688 -2.472656 10.273438 -2.40625 11.046875 -2.40625 C 13.003906 -2.40625 14.5 -3.09375 15.53125 -4.46875 C 16.570312 -5.851562 17.09375 -7.878906 17.09375 -10.546875 C 17.09375 -13.378906 16.472656 -15.457031 15.234375 -16.78125 C 14.003906 -18.101562 12.117188 -18.765625 9.578125 -18.765625 Z M 9.578125 -18.765625" transform="translate(50.8 75.857)"/></g></g></g><g><g><g><path d="M 11.046875 0 L 11.21875 -1.96875 C 11.976562 -2.03125 12.53125 -2.097656 12.875 -2.171875 C 13.21875 -2.253906 13.457031 -2.367188 13.59375 -2.515625 C 13.726562 -2.660156 13.796875 -2.878906 13.796875 -3.171875 C 13.796875 -3.441406 13.738281 -3.832031 13.625 -4.34375 L 12.921875 -6.90625 C 11.765625 -6.957031 10.738281 -6.984375 9.84375 -6.984375 C 9.445312 -6.984375 8.613281 -6.925781 7.34375 -6.8125 L 6.640625 -6.75 L 5.8125 -4.171875 C 5.675781 -3.679688 5.609375 -3.335938 5.609375 -3.140625 C 5.609375 -2.734375 5.722656 -2.453125 5.953125 -2.296875 C 6.191406 -2.140625 6.597656 -2.0625 7.171875 -2.0625 L 8.609375 -2.0625 L 8.78125 -1.84375 L 8.546875 0.203125 C 8.234375 0.179688 7.566406 0.140625 6.546875 0.078125 C 5.523438 0.0234375 4.566406 0 3.671875 0 C 2.734375 0 1.890625 0.0078125 1.140625 0.03125 C 0.398438 0.0507812 -0.0859375 0.0703125 -0.328125 0.09375 L -0.09375 -2.0625 C 0.414062 -2.15625 0.835938 -2.367188 1.171875 -2.703125 C 1.503906 -3.035156 1.816406 -3.582031 2.109375 -4.34375 L 8.078125 -21.265625 L 13.1875 -21.796875 L 13.5625 -21.640625 C 13.894531 -20.367188 14.585938 -17.769531 15.640625 -13.84375 C 16.703125 -9.914062 17.609375 -6.757812 18.359375 -4.375 C 18.609375 -3.570312 18.921875 -3.003906 19.296875 -2.671875 C 19.679688 -2.335938 20.25 -2.132812 21 -2.0625 L 21.140625 -1.84375 L 20.90625 0.09375 C 20.613281 0.0703125 20.066406 0.0507812 19.265625 0.03125 C 18.460938 0.0078125 17.648438 0 16.828125 0 C 15.648438 0 14.5 0.0351562 13.375 0.109375 C 12.25 0.191406 11.53125 0.242188 11.21875 0.265625 Z M 9.84375 -9.546875 C 10.09375 -9.546875 10.921875 -9.582031 12.328125 -9.65625 L 10.34375 -17.09375 L 9.921875 -17.09375 L 7.453125 -9.546875 Z M 9.84375 -9.546875" transform="translate(83.625 75.857)"/></g></g></g><g><g><g><path d="M 10.515625 0.40625 C 8.554688 0.40625 6.859375 -0.0195312 5.421875 -0.875 C 3.984375 -1.738281 2.878906 -2.957031 2.109375 -4.53125 C 1.347656 -6.113281 0.96875 -7.988281 0.96875 -10.15625 C 0.96875 -12.46875 1.421875 -14.503906 2.328125 -16.265625 C 3.242188 -18.023438 4.53125 -19.394531 6.1875 -20.375 C 7.851562 -21.351562 9.765625 -21.84375 11.921875 -21.84375 C 13.921875 -21.84375 15.648438 -21.421875 17.109375 -20.578125 C 18.566406 -19.742188 19.679688 -18.539062 20.453125 -16.96875 C 21.222656 -15.40625 21.609375 -13.546875 21.609375 -11.390625 C 21.609375 -9.066406 21.144531 -7.007812 20.21875 -5.21875 C 19.289062 -3.425781 17.988281 -2.039062 16.3125 -1.0625 C 14.632812 -0.0820312 12.703125 0.40625 10.515625 0.40625 Z M 11.390625 -2.4375 C 12.992188 -2.4375 14.242188 -3.0625 15.140625 -4.3125 C 16.046875 -5.570312 16.5 -7.351562 16.5 -9.65625 C 16.5 -12.570312 16.019531 -14.800781 15.0625 -16.34375 C 14.101562 -17.894531 12.742188 -18.671875 10.984375 -18.671875 C 9.398438 -18.671875 8.171875 -18.039062 7.296875 -16.78125 C 6.421875 -15.519531 5.984375 -13.742188 5.984375 -11.453125 C 5.984375 -8.535156 6.453125 -6.300781 7.390625 -4.75 C 8.335938 -3.207031 9.671875 -2.4375 11.390625 -2.4375 Z M 11.390625 -2.4375" transform="translate(114.148 75.857)"/></g></g></g></svg>