<svg width="20" height="20" viewBox="0 0 20 20" fill="none" xmlns="http://www.w3.org/2000/svg">
<path d="M10.7667 1.88333L16.1917 4.80833C16.825 5.14999 16.825 6.12499 16.1917 6.46666L10.7667 9.39166C10.2833 9.64999 9.71668 9.64999 9.23334 9.39166L3.80834 6.46666C3.17501 6.12499 3.17501 5.14999 3.80834 4.80833L9.23334 1.88333C9.71668 1.62499 10.2833 1.62499 10.7667 1.88333Z" stroke="#E1E1E1" strokeWidth="1.5" strokeLinecap="round" strokeLinejoin="round"/>
<path d="M3.00832 8.44167L8.04999 10.9667C8.67499 11.2833 9.07499 11.925 9.07499 12.625V17.3917C9.07499 18.0833 8.34999 18.525 7.73332 18.2167L2.69166 15.6917C2.06666 15.375 1.66666 14.7333 1.66666 14.0333V9.26667C1.66666 8.575 2.39166 8.13333 3.00832 8.44167Z" stroke="#E1E1E1" strokeWidth="1.5" strokeLinecap="round" strokeLinejoin="round"/>
<path d="M16.9917 8.44167L11.95 10.9667C11.325 11.2833 10.925 11.925 10.925 12.625V17.3917C10.925 18.0833 11.65 18.525 12.2667 18.2167L17.3083 15.6917C17.9333 15.375 18.3333 14.7333 18.3333 14.0333V9.26667C18.3333 8.575 17.6083 8.13333 16.9917 8.44167Z" stroke="#E1E1E1" strokeWidth="1.5" strokeLinecap="round" strokeLinejoin="round"/>
</svg>
