<svg width="19" height="13" viewBox="0 0 19 13" fill="none" xmlns="http://www.w3.org/2000/svg">
<path d="M16.6556 1.62334C14.3274 -0.0464538 12.0969 0.000323276 12.0969 0.000323276L11.8689 0.24993C14.6368 1.04591 15.923 2.2163 15.923 2.2163C11.9631 0.126469 6.91907 0.141422 2.80023 2.2163C2.80023 2.2163 4.13524 0.983413 7.06587 0.187432L6.90307 0.000131671C6.90307 0.000131671 4.68885 -0.0466457 2.34442 1.62315C2.34442 1.62315 0 5.66517 0 10.6435C0 10.6435 1.36761 12.8907 4.96585 13C4.96585 13 5.56826 12.3133 6.05666 11.7203C3.98884 11.1274 3.20743 9.89449 3.20743 9.89449C4.50645 10.6736 5.82006 11.1613 7.45688 11.4707C10.1201 11.9962 13.4327 11.456 15.9068 9.89449C15.9068 9.89449 15.0928 11.1586 12.9599 11.7361C13.4483 12.3135 14.0345 12.9845 14.0345 12.9845C17.6324 12.8754 19 10.6282 19 10.6437C19 5.66536 16.6556 1.62334 16.6556 1.62334ZM6.46347 9.19244C5.55166 9.19244 4.80285 8.42771 4.80285 7.47568C4.86945 5.19586 8.07429 5.20296 8.12429 7.47568C8.12409 8.42771 7.39148 9.19244 6.46347 9.19244ZM12.4061 9.19244C11.4943 9.19244 10.7455 8.42771 10.7455 7.47568C10.8187 5.20027 13.9835 5.19931 14.0669 7.47568C14.0667 8.42771 13.3341 9.19244 12.4061 9.19244Z" fill="black"/>
</svg>
