<svg width="17" height="16" viewBox="0 0 17 16" fill="none" xmlns="http://www.w3.org/2000/svg">
<path d="M15.6133 0C15.6133 0 14.2677 0 12.9008 1.59995C12.2245 1.07147 10.1678 1.06647 9.48636 1.06647C8.80231 1.06647 6.74697 1.07147 6.06996 1.59995C4.70315 0 3.36067 0 3.36067 0C2.62987 1.43196 3.20183 2.40342 3.33954 2.66642C2.65677 3.1999 1.9708 3.73338 1.9708 6.3998C1.9708 9.06622 4.45464 10.4037 7.43934 10.6662C7.05569 10.9267 6.75593 11.7326 6.75593 12.2661C5.98926 12.5326 3.85578 12.7886 2.65677 11.1996C2.65677 11.1996 1.97336 10.1332 0.607189 10.1332C0.607189 10.1332 -0.758986 10.0327 0.607189 10.6667C0.607189 10.6667 1.2906 11.2002 1.97336 12.2666C1.97336 12.2666 3.01673 14.4945 6.75593 13.8666C6.76362 14.734 6.75593 16 6.75593 16H12.2181V12.2666C12.2181 11.8446 11.9196 10.9267 11.5347 10.6667C14.5194 10.4042 17 9.06672 17 6.4003C17 3.73388 16.3166 3.2004 15.6338 2.66692C15.7728 2.40342 16.3435 1.43196 15.6133 0V0Z" fill="black"/>
</svg>
