<svg xmlns="http://www.w3.org/2000/svg" xmlns:xlink="http://www.w3.org/1999/xlink" width="263" zoomAndPan="magnify" viewBox="0 0 197.25 47.25" height="63" preserveAspectRatio="xMidYMid meet" version="1.0"><defs><g/><clipPath id="id1"><path d="M 1.171875 0 L 47.683594 0 L 47.683594 46.378906 L 1.171875 46.378906 Z M 1.171875 0 " clip-rule="nonzero"/></clipPath></defs><g clip-path="url(#id1)"><path fill="rgb(0%, 0%, 0%)" d="M 24.425781 0.121094 C 11.722656 0.121094 1.425781 10.421875 1.425781 23.125 C 1.425781 35.828125 11.722656 46.128906 24.425781 46.128906 C 37.132812 46.128906 47.429688 35.828125 47.429688 23.125 C 47.429688 10.421875 37.132812 0.121094 24.425781 0.121094 " fill-opacity="1" fill-rule="nonzero"/></g><path fill="rgb(100%, 100%, 100%)" d="M 24.421875 1.414062 C 12.433594 1.414062 2.714844 11.132812 2.714844 23.117188 C 2.714844 35.105469 12.433594 44.824219 24.421875 44.824219 C 36.410156 44.824219 46.128906 35.105469 46.128906 23.117188 C 46.128906 11.132812 36.410156 1.414062 24.421875 1.414062 " fill-opacity="1" fill-rule="nonzero"/><path fill="rgb(0%, 0%, 0%)" d="M 24.417969 2.605469 C 13.089844 2.605469 3.90625 11.789062 3.90625 23.113281 C 3.90625 34.445312 13.089844 43.625 24.417969 43.625 C 35.746094 43.625 44.929688 34.445312 44.929688 23.113281 C 44.929688 11.789062 35.746094 2.605469 24.417969 2.605469 " fill-opacity="1" fill-rule="nonzero"/><path fill="rgb(100%, 100%, 100%)" d="M 10.601562 24.640625 L 7.972656 24.640625 C 7.863281 24.640625 7.773438 24.554688 7.773438 24.445312 L 7.773438 21.8125 C 7.773438 21.707031 7.863281 21.617188 7.972656 21.617188 L 10.601562 21.617188 C 10.710938 21.617188 10.800781 21.707031 10.800781 21.8125 L 10.800781 24.445312 C 10.800781 24.554688 10.710938 24.640625 10.601562 24.640625 " fill-opacity="1" fill-rule="nonzero"/><path fill="rgb(100%, 100%, 100%)" d="M 19.160156 25.386719 L 15.230469 25.386719 C 15.070312 25.386719 14.9375 25.253906 14.9375 25.09375 L 14.9375 21.164062 C 14.9375 21 15.070312 20.871094 15.230469 20.871094 L 19.160156 20.871094 C 19.320312 20.871094 19.453125 21 19.453125 21.164062 L 19.453125 25.09375 C 19.453125 25.253906 19.320312 25.386719 19.160156 25.386719 " fill-opacity="1" fill-rule="nonzero"/><path fill="rgb(100%, 100%, 100%)" d="M 29.128906 26.082031 L 23.976562 26.082031 C 23.765625 26.082031 23.59375 25.914062 23.59375 25.699219 L 23.59375 20.546875 C 23.59375 20.335938 23.765625 20.164062 23.976562 20.164062 L 29.128906 20.164062 C 29.339844 20.164062 29.511719 20.335938 29.511719 20.546875 L 29.511719 25.699219 C 29.511719 25.914062 29.339844 26.082031 29.128906 26.082031 " fill-opacity="1" fill-rule="nonzero"/><path fill="rgb(100%, 100%, 100%)" d="M 40.589844 26.828125 L 34.140625 26.828125 C 33.878906 26.828125 33.660156 26.609375 33.660156 26.34375 L 33.660156 19.894531 C 33.660156 19.632812 33.878906 19.414062 34.140625 19.414062 L 40.589844 19.414062 C 40.855469 19.414062 41.070312 19.632812 41.070312 19.894531 L 41.070312 26.34375 C 41.070312 26.609375 40.855469 26.828125 40.589844 26.828125 " fill-opacity="1" fill-rule="nonzero"/><g fill="rgb(100%, 100%, 100%)" fill-opacity="1"><g transform="translate(53.32315, 28.888073)"><g><path d="M 6.625 0.28125 C 5.726562 -2.550781 4.800781 -5.332031 3.84375 -8.0625 L 3.6875 -8.0625 C 3.6875 -7.9375 3.660156 -7.503906 3.609375 -6.765625 C 3.566406 -6.023438 3.53125 -5.410156 3.5 -4.921875 C 3.351562 -2.921875 3.28125 -1.84375 3.28125 -1.6875 C 3.28125 -1.3125 3.472656 -1.125 3.859375 -1.125 L 4.453125 -1.140625 L 4.5625 -1.046875 L 4.375 0.078125 C 3.375 0.0234375 2.675781 0 2.28125 0 C 2.007812 0 1.679688 0.015625 1.296875 0.046875 C 0.910156 0.0859375 0.648438 0.117188 0.515625 0.140625 L 0.625 -1.015625 C 0.96875 -1.054688 1.21875 -1.164062 1.375 -1.34375 C 1.53125 -1.53125 1.644531 -1.847656 1.71875 -2.296875 C 1.820312 -3.222656 1.960938 -4.609375 2.140625 -6.453125 C 2.328125 -8.296875 2.421875 -9.3125 2.421875 -9.5 C 2.421875 -9.8125 2.328125 -10.023438 2.140625 -10.140625 C 1.960938 -10.265625 1.609375 -10.351562 1.078125 -10.40625 L 0.984375 -10.515625 L 1.140625 -11.546875 C 2.117188 -11.484375 2.863281 -11.453125 3.375 -11.453125 C 3.632812 -11.453125 4.265625 -11.476562 5.265625 -11.53125 C 5.742188 -9.851562 6.40625 -7.671875 7.25 -4.984375 L 7.546875 -4.046875 L 7.6875 -4.046875 C 7.757812 -4.285156 7.851562 -4.585938 7.96875 -4.953125 C 8.09375 -5.316406 8.21875 -5.707031 8.34375 -6.125 C 8.957031 -7.925781 9.535156 -9.707031 10.078125 -11.46875 C 10.328125 -11.46875 10.53125 -11.460938 10.6875 -11.453125 L 11.640625 -11.4375 L 12.1875 -11.453125 C 12.4375 -11.453125 12.753906 -11.460938 13.140625 -11.484375 C 13.535156 -11.515625 13.820312 -11.539062 14 -11.5625 L 14.078125 -11.484375 L 13.96875 -10.421875 C 13.457031 -10.367188 13.109375 -10.273438 12.921875 -10.140625 C 12.742188 -10.015625 12.65625 -9.789062 12.65625 -9.46875 C 12.65625 -9.101562 12.703125 -8.164062 12.796875 -6.65625 C 12.890625 -5.15625 12.984375 -3.859375 13.078125 -2.765625 C 13.148438 -2.109375 13.242188 -1.671875 13.359375 -1.453125 C 13.472656 -1.234375 13.671875 -1.125 13.953125 -1.125 C 14.085938 -1.125 14.195312 -1.128906 14.28125 -1.140625 C 14.375 -1.148438 14.429688 -1.15625 14.453125 -1.15625 L 14.53125 -1.078125 L 14.359375 0.046875 C 14.179688 0.046875 14.019531 0.0390625 13.875 0.03125 C 13.351562 0.0078125 12.914062 0 12.5625 0 C 12.21875 0 11.757812 0.015625 11.1875 0.046875 C 10.625 0.0859375 10.238281 0.117188 10.03125 0.140625 L 10.15625 -1.015625 C 10.507812 -1.066406 10.765625 -1.160156 10.921875 -1.296875 C 11.078125 -1.429688 11.15625 -1.632812 11.15625 -1.90625 C 11.15625 -1.957031 11.109375 -2.695312 11.015625 -4.125 C 10.878906 -5.988281 10.800781 -7.300781 10.78125 -8.0625 L 10.609375 -8.0625 C 9.617188 -5.28125 8.691406 -2.550781 7.828125 0.125 Z M 6.625 0.28125 "/></g></g></g><g fill="rgb(100%, 100%, 100%)" fill-opacity="1"><g transform="translate(71.088526, 28.888073)"><g><path d="M 5.90625 0 L 6 -1.046875 C 6.40625 -1.085938 6.695312 -1.128906 6.875 -1.171875 C 7.0625 -1.210938 7.191406 -1.269531 7.265625 -1.34375 C 7.335938 -1.425781 7.375 -1.539062 7.375 -1.6875 C 7.375 -1.832031 7.34375 -2.039062 7.28125 -2.3125 L 6.90625 -3.6875 C 6.289062 -3.71875 5.742188 -3.734375 5.265625 -3.734375 C 5.046875 -3.734375 4.597656 -3.703125 3.921875 -3.640625 L 3.546875 -3.609375 L 3.109375 -2.234375 C 3.035156 -1.972656 3 -1.785156 3 -1.671875 C 3 -1.460938 3.0625 -1.316406 3.1875 -1.234375 C 3.3125 -1.148438 3.53125 -1.109375 3.84375 -1.109375 L 4.609375 -1.109375 L 4.6875 -0.984375 L 4.5625 0.109375 C 4.394531 0.0976562 4.035156 0.078125 3.484375 0.046875 C 2.941406 0.015625 2.4375 0 1.96875 0 C 1.46875 0 1.015625 0.00390625 0.609375 0.015625 C 0.210938 0.0234375 -0.046875 0.0351562 -0.171875 0.046875 L -0.046875 -1.109375 C 0.222656 -1.148438 0.445312 -1.257812 0.625 -1.4375 C 0.800781 -1.625 0.96875 -1.914062 1.125 -2.3125 L 4.3125 -11.359375 L 7.046875 -11.65625 L 7.25 -11.5625 C 7.425781 -10.882812 7.796875 -9.492188 8.359375 -7.390625 C 8.921875 -5.296875 9.40625 -3.613281 9.8125 -2.34375 C 9.945312 -1.90625 10.113281 -1.597656 10.3125 -1.421875 C 10.507812 -1.242188 10.8125 -1.140625 11.21875 -1.109375 L 11.296875 -0.984375 L 11.171875 0.046875 C 11.015625 0.0351562 10.722656 0.0234375 10.296875 0.015625 C 9.867188 0.00390625 9.4375 0 9 0 C 8.363281 0 7.742188 0.0195312 7.140625 0.0625 C 6.546875 0.101562 6.164062 0.128906 6 0.140625 Z M 5.265625 -5.109375 C 5.390625 -5.109375 5.828125 -5.125 6.578125 -5.15625 L 5.53125 -9.140625 L 5.296875 -9.140625 L 3.984375 -5.109375 Z M 5.265625 -5.109375 "/></g></g></g><g fill="rgb(100%, 100%, 100%)" fill-opacity="1"><g transform="translate(85.001465, 28.888073)"><g><path d="M 9.171875 0.28125 C 8.398438 0.28125 7.753906 -0.269531 7.234375 -1.375 L 5.671875 -4.515625 L 4.40625 -4.515625 L 4.375 -2.5 C 4.375 -2.082031 4.398438 -1.78125 4.453125 -1.59375 C 4.515625 -1.414062 4.628906 -1.296875 4.796875 -1.234375 C 4.960938 -1.171875 5.25 -1.132812 5.65625 -1.125 L 5.703125 -1.015625 L 5.546875 0.078125 C 5.335938 0.0546875 4.960938 0.0390625 4.421875 0.03125 C 3.890625 0.0195312 3.394531 0.015625 2.9375 0.015625 C 2.5 0.015625 2.046875 0.0234375 1.578125 0.046875 C 1.117188 0.078125 0.816406 0.0976562 0.671875 0.109375 L 0.84375 -1.078125 C 1.34375 -1.128906 1.675781 -1.253906 1.84375 -1.453125 C 2.019531 -1.660156 2.109375 -2.019531 2.109375 -2.53125 L 2.109375 -9.4375 C 2.109375 -9.78125 2.066406 -10.007812 1.984375 -10.125 C 1.910156 -10.25 1.757812 -10.3125 1.53125 -10.3125 C 1.40625 -10.3125 1.28125 -10.304688 1.15625 -10.296875 C 1.039062 -10.285156 0.960938 -10.28125 0.921875 -10.28125 L 0.828125 -10.421875 L 0.984375 -11.484375 C 1.148438 -11.484375 1.453125 -11.476562 1.890625 -11.46875 C 2.335938 -11.457031 2.78125 -11.453125 3.21875 -11.453125 C 3.6875 -11.453125 4.195312 -11.460938 4.75 -11.484375 C 5.300781 -11.503906 5.6875 -11.519531 5.90625 -11.53125 C 7.257812 -11.53125 8.296875 -11.265625 9.015625 -10.734375 C 9.734375 -10.210938 10.09375 -9.457031 10.09375 -8.46875 C 10.09375 -7.769531 9.882812 -7.128906 9.46875 -6.546875 C 9.050781 -5.960938 8.457031 -5.472656 7.6875 -5.078125 L 9.265625 -2.53125 C 9.597656 -1.988281 9.914062 -1.597656 10.21875 -1.359375 C 10.53125 -1.117188 10.878906 -1 11.265625 -1 L 11.390625 -0.84375 L 11.265625 0.09375 Z M 6.0625 -5.890625 C 6.457031 -6.054688 6.816406 -6.300781 7.140625 -6.625 C 7.460938 -6.957031 7.625 -7.46875 7.625 -8.15625 C 7.625 -8.8125 7.398438 -9.296875 6.953125 -9.609375 C 6.515625 -9.929688 5.835938 -10.09375 4.921875 -10.09375 C 4.804688 -10.09375 4.726562 -10.066406 4.6875 -10.015625 C 4.644531 -9.972656 4.617188 -9.867188 4.609375 -9.703125 C 4.535156 -8.484375 4.484375 -7.269531 4.453125 -6.0625 Z M 6.0625 -5.890625 "/></g></g></g><g fill="rgb(100%, 100%, 100%)" fill-opacity="1"><g transform="translate(99.199761, 28.888073)"><g><path d="M 3.25 0 C 2.832031 0 2.34375 0.0195312 1.78125 0.0625 C 1.226562 0.113281 0.859375 0.148438 0.671875 0.171875 L 0.796875 -1 C 1.304688 -1.09375 1.648438 -1.238281 1.828125 -1.4375 C 2.015625 -1.632812 2.109375 -1.960938 2.109375 -2.421875 L 2.125 -9.421875 C 2.125 -9.753906 2.082031 -9.984375 2 -10.109375 C 1.914062 -10.242188 1.765625 -10.3125 1.546875 -10.3125 C 1.429688 -10.3125 1.3125 -10.304688 1.1875 -10.296875 C 1.070312 -10.285156 0.992188 -10.28125 0.953125 -10.28125 L 0.828125 -10.421875 L 0.984375 -11.484375 C 1.171875 -11.484375 1.515625 -11.476562 2.015625 -11.46875 C 2.523438 -11.457031 3 -11.453125 3.4375 -11.453125 C 3.894531 -11.453125 4.398438 -11.460938 4.953125 -11.484375 C 5.515625 -11.515625 5.910156 -11.535156 6.140625 -11.546875 C 7.359375 -11.546875 8.289062 -11.304688 8.9375 -10.828125 C 9.582031 -10.359375 9.90625 -9.675781 9.90625 -8.78125 C 9.90625 -8.1875 9.734375 -7.660156 9.390625 -7.203125 C 9.054688 -6.742188 8.582031 -6.359375 7.96875 -6.046875 C 8.75 -5.847656 9.367188 -5.523438 9.828125 -5.078125 C 10.285156 -4.640625 10.515625 -4.078125 10.515625 -3.390625 C 10.515625 -2.691406 10.316406 -2.070312 9.921875 -1.53125 C 9.535156 -0.988281 8.992188 -0.566406 8.296875 -0.265625 C 7.609375 0.0234375 6.804688 0.171875 5.890625 0.171875 C 5.742188 0.171875 5.546875 0.160156 5.296875 0.140625 C 5.046875 0.117188 4.859375 0.101562 4.734375 0.09375 C 4.578125 0.0820312 4.335938 0.0625 4.015625 0.03125 C 3.691406 0.0078125 3.4375 0 3.25 0 Z M 4.484375 -6.5625 C 4.617188 -6.550781 4.898438 -6.519531 5.328125 -6.46875 C 5.765625 -6.425781 6.050781 -6.40625 6.1875 -6.40625 C 6.1875 -6.382812 6.300781 -6.445312 6.53125 -6.59375 C 6.769531 -6.738281 6.976562 -6.953125 7.15625 -7.234375 C 7.34375 -7.523438 7.4375 -7.890625 7.4375 -8.328125 C 7.4375 -8.941406 7.234375 -9.390625 6.828125 -9.671875 C 6.429688 -9.953125 5.800781 -10.09375 4.9375 -10.09375 C 4.820312 -10.09375 4.742188 -10.066406 4.703125 -10.015625 C 4.660156 -9.972656 4.632812 -9.890625 4.625 -9.765625 C 4.550781 -8.796875 4.503906 -7.726562 4.484375 -6.5625 Z M 4.375 -2.375 C 4.375 -1.988281 4.503906 -1.71875 4.765625 -1.5625 C 5.023438 -1.40625 5.457031 -1.328125 6.0625 -1.328125 C 6.644531 -1.328125 7.101562 -1.484375 7.4375 -1.796875 C 7.769531 -2.117188 7.9375 -2.5625 7.9375 -3.125 C 7.9375 -3.613281 7.78125 -4.019531 7.46875 -4.34375 C 7.15625 -4.664062 6.703125 -4.894531 6.109375 -5.03125 L 4.4375 -5.015625 Z M 4.375 -2.375 "/></g></g></g><g fill="rgb(100%, 100%, 100%)" fill-opacity="1"><g transform="translate(113.14837, 28.888073)"><g><path d="M 0.90625 -1.015625 C 1.363281 -1.085938 1.675781 -1.226562 1.84375 -1.4375 C 2.007812 -1.65625 2.09375 -2.023438 2.09375 -2.546875 L 2.109375 -9.390625 C 2.109375 -9.753906 2.066406 -10 1.984375 -10.125 C 1.898438 -10.25 1.726562 -10.3125 1.46875 -10.3125 L 0.90625 -10.296875 L 0.828125 -10.4375 L 0.96875 -11.46875 L 3.359375 -11.453125 C 3.691406 -11.453125 4.175781 -11.46875 4.8125 -11.5 C 5.445312 -11.539062 5.863281 -11.566406 6.0625 -11.578125 L 5.9375 -10.34375 C 5.53125 -10.300781 5.234375 -10.234375 5.046875 -10.140625 C 4.867188 -10.054688 4.753906 -9.929688 4.703125 -9.765625 C 4.648438 -9.609375 4.609375 -9.359375 4.578125 -9.015625 C 4.453125 -7.222656 4.390625 -5.039062 4.390625 -2.46875 C 4.390625 -2.144531 4.414062 -1.90625 4.46875 -1.75 C 4.53125 -1.601562 4.640625 -1.503906 4.796875 -1.453125 C 4.953125 -1.398438 5.191406 -1.375 5.515625 -1.375 C 6.109375 -1.375 6.550781 -1.4375 6.84375 -1.5625 C 7.132812 -1.695312 7.347656 -1.945312 7.484375 -2.3125 C 7.628906 -2.6875 7.75 -3.269531 7.84375 -4.0625 L 9.296875 -4.234375 L 9.421875 -4.046875 C 9.390625 -3.828125 9.320312 -3.320312 9.21875 -2.53125 C 9.113281 -1.738281 9.023438 -0.90625 8.953125 -0.03125 L 8.78125 0.140625 C 8.457031 0.128906 7.757812 0.101562 6.6875 0.0625 C 5.613281 0.0195312 4.644531 0 3.78125 0 C 3.125 0 2.5 0.0195312 1.90625 0.0625 C 1.3125 0.113281 0.929688 0.148438 0.765625 0.171875 Z M 0.90625 -1.015625 "/></g></g></g><g fill="rgb(100%, 100%, 100%)" fill-opacity="1"><g transform="translate(125.366944, 28.888073)"><g><path d="M 9.9375 -3.375 C 9.75 -2.445312 9.585938 -1.347656 9.453125 -0.078125 L 9.28125 0.125 C 7.007812 0.0390625 5.160156 0 3.734375 0 C 2.734375 0 1.710938 0.0546875 0.671875 0.171875 L 0.796875 -1.015625 C 1.296875 -1.085938 1.632812 -1.226562 1.8125 -1.4375 C 2 -1.65625 2.09375 -2.023438 2.09375 -2.546875 L 2.109375 -9.34375 C 2.109375 -9.738281 2.070312 -10 2 -10.125 C 1.925781 -10.25 1.769531 -10.3125 1.53125 -10.3125 C 1.375 -10.3125 1.191406 -10.300781 0.984375 -10.28125 L 0.875 -10.4375 L 1.015625 -11.515625 L 1.375 -11.515625 C 2.21875 -11.472656 3.175781 -11.453125 4.25 -11.453125 C 6.894531 -11.453125 8.703125 -11.523438 9.671875 -11.671875 L 9.8125 -11.46875 C 9.71875 -11.03125 9.628906 -10.507812 9.546875 -9.90625 C 9.472656 -9.300781 9.425781 -8.75 9.40625 -8.25 L 7.8125 -8.140625 L 7.84375 -8.84375 C 7.84375 -9.207031 7.789062 -9.460938 7.6875 -9.609375 C 7.59375 -9.753906 7.394531 -9.851562 7.09375 -9.90625 C 6.789062 -9.96875 6.28125 -10 5.5625 -10 C 5.257812 -10 5.046875 -9.984375 4.921875 -9.953125 C 4.804688 -9.929688 4.726562 -9.878906 4.6875 -9.796875 C 4.644531 -9.710938 4.617188 -9.578125 4.609375 -9.390625 L 4.484375 -6.578125 L 6.15625 -6.5625 C 6.40625 -6.5625 6.71875 -6.578125 7.09375 -6.609375 C 7.46875 -6.640625 7.84375 -6.679688 8.21875 -6.734375 L 8.375 -6.5625 L 8.125 -5.046875 C 7.96875 -5.046875 7.847656 -5.050781 7.765625 -5.0625 C 6.929688 -5.09375 6.269531 -5.109375 5.78125 -5.109375 C 5.414062 -5.109375 4.957031 -5.070312 4.40625 -5 L 4.375 -2.4375 C 4.375 -2.101562 4.398438 -1.863281 4.453125 -1.71875 C 4.503906 -1.582031 4.601562 -1.488281 4.75 -1.4375 C 4.90625 -1.394531 5.164062 -1.375 5.53125 -1.375 C 6.3125 -1.375 6.878906 -1.414062 7.234375 -1.5 C 7.585938 -1.59375 7.835938 -1.773438 7.984375 -2.046875 C 8.140625 -2.328125 8.257812 -2.78125 8.34375 -3.40625 L 9.8125 -3.53125 Z M 9.9375 -3.375 "/></g></g></g><g fill="rgb(100%, 100%, 100%)" fill-opacity="1"><g transform="translate(138.756776, 28.888073)"><g/></g></g><g fill="rgb(100%, 100%, 100%)" fill-opacity="1"><g transform="translate(144.625947, 28.888073)"><g/></g></g><g fill="rgb(100%, 100%, 100%)" fill-opacity="1"><g transform="translate(150.490552, 28.888073)"><g><path d="M 5.671875 0.21875 C 5.484375 0.1875 5.09375 0.140625 4.5 0.078125 C 3.914062 0.0234375 3.410156 0 2.984375 0 C 2.585938 0 2.144531 0.0195312 1.65625 0.0625 C 1.164062 0.113281 0.851562 0.148438 0.71875 0.171875 L 0.828125 -1.015625 C 1.335938 -1.097656 1.679688 -1.242188 1.859375 -1.453125 C 2.035156 -1.671875 2.125 -2.03125 2.125 -2.53125 L 2.125 -9.328125 C 2.125 -9.710938 2.085938 -9.96875 2.015625 -10.09375 C 1.941406 -10.226562 1.789062 -10.296875 1.5625 -10.296875 C 1.4375 -10.296875 1.3125 -10.289062 1.1875 -10.28125 C 1.070312 -10.269531 1 -10.265625 0.96875 -10.265625 L 0.875 -10.421875 L 1.015625 -11.515625 C 1.179688 -11.515625 1.488281 -11.503906 1.9375 -11.484375 C 2.394531 -11.460938 2.835938 -11.453125 3.265625 -11.453125 C 3.785156 -11.453125 4.332031 -11.460938 4.90625 -11.484375 C 5.476562 -11.503906 5.867188 -11.519531 6.078125 -11.53125 C 7.273438 -11.53125 8.304688 -11.316406 9.171875 -10.890625 C 10.035156 -10.460938 10.695312 -9.847656 11.15625 -9.046875 C 11.625 -8.242188 11.859375 -7.289062 11.859375 -6.1875 C 11.859375 -4.957031 11.59375 -3.851562 11.0625 -2.875 C 10.539062 -1.894531 9.804688 -1.132812 8.859375 -0.59375 C 7.921875 -0.0507812 6.859375 0.21875 5.671875 0.21875 Z M 5.125 -10.03125 C 4.925781 -10.03125 4.789062 -10 4.71875 -9.9375 C 4.65625 -9.875 4.617188 -9.757812 4.609375 -9.59375 C 4.453125 -6.28125 4.375 -3.945312 4.375 -2.59375 C 4.375 -2.226562 4.414062 -1.953125 4.5 -1.765625 C 4.582031 -1.585938 4.734375 -1.460938 4.953125 -1.390625 C 5.171875 -1.316406 5.488281 -1.28125 5.90625 -1.28125 C 6.945312 -1.28125 7.742188 -1.648438 8.296875 -2.390625 C 8.859375 -3.128906 9.140625 -4.210938 9.140625 -5.640625 C 9.140625 -7.148438 8.804688 -8.257812 8.140625 -8.96875 C 7.484375 -9.675781 6.476562 -10.03125 5.125 -10.03125 Z M 5.125 -10.03125 "/></g></g></g><g fill="rgb(100%, 100%, 100%)" fill-opacity="1"><g transform="translate(165.634128, 28.888073)"><g><path d="M 5.90625 0 L 6 -1.046875 C 6.40625 -1.085938 6.695312 -1.128906 6.875 -1.171875 C 7.0625 -1.210938 7.191406 -1.269531 7.265625 -1.34375 C 7.335938 -1.425781 7.375 -1.539062 7.375 -1.6875 C 7.375 -1.832031 7.34375 -2.039062 7.28125 -2.3125 L 6.90625 -3.6875 C 6.289062 -3.71875 5.742188 -3.734375 5.265625 -3.734375 C 5.046875 -3.734375 4.597656 -3.703125 3.921875 -3.640625 L 3.546875 -3.609375 L 3.109375 -2.234375 C 3.035156 -1.972656 3 -1.785156 3 -1.671875 C 3 -1.460938 3.0625 -1.316406 3.1875 -1.234375 C 3.3125 -1.148438 3.53125 -1.109375 3.84375 -1.109375 L 4.609375 -1.109375 L 4.6875 -0.984375 L 4.5625 0.109375 C 4.394531 0.0976562 4.035156 0.078125 3.484375 0.046875 C 2.941406 0.015625 2.4375 0 1.96875 0 C 1.46875 0 1.015625 0.00390625 0.609375 0.015625 C 0.210938 0.0234375 -0.046875 0.0351562 -0.171875 0.046875 L -0.046875 -1.109375 C 0.222656 -1.148438 0.445312 -1.257812 0.625 -1.4375 C 0.800781 -1.625 0.96875 -1.914062 1.125 -2.3125 L 4.3125 -11.359375 L 7.046875 -11.65625 L 7.25 -11.5625 C 7.425781 -10.882812 7.796875 -9.492188 8.359375 -7.390625 C 8.921875 -5.296875 9.40625 -3.613281 9.8125 -2.34375 C 9.945312 -1.90625 10.113281 -1.597656 10.3125 -1.421875 C 10.507812 -1.242188 10.8125 -1.140625 11.21875 -1.109375 L 11.296875 -0.984375 L 11.171875 0.046875 C 11.015625 0.0351562 10.722656 0.0234375 10.296875 0.015625 C 9.867188 0.00390625 9.4375 0 9 0 C 8.363281 0 7.742188 0.0195312 7.140625 0.0625 C 6.546875 0.101562 6.164062 0.128906 6 0.140625 Z M 5.265625 -5.109375 C 5.390625 -5.109375 5.828125 -5.125 6.578125 -5.15625 L 5.53125 -9.140625 L 5.296875 -9.140625 L 3.984375 -5.109375 Z M 5.265625 -5.109375 "/></g></g></g><g fill="rgb(100%, 100%, 100%)" fill-opacity="1"><g transform="translate(179.547067, 28.888073)"><g><path d="M 5.625 0.21875 C 4.570312 0.21875 3.660156 -0.0078125 2.890625 -0.46875 C 2.128906 -0.925781 1.539062 -1.578125 1.125 -2.421875 C 0.71875 -3.265625 0.515625 -4.265625 0.515625 -5.421875 C 0.515625 -6.660156 0.757812 -7.75 1.25 -8.6875 C 1.738281 -9.625 2.425781 -10.351562 3.3125 -10.875 C 4.195312 -11.40625 5.21875 -11.671875 6.375 -11.671875 C 7.4375 -11.671875 8.359375 -11.445312 9.140625 -11 C 9.921875 -10.550781 10.515625 -9.90625 10.921875 -9.0625 C 11.335938 -8.226562 11.546875 -7.234375 11.546875 -6.078125 C 11.546875 -4.847656 11.296875 -3.753906 10.796875 -2.796875 C 10.304688 -1.835938 9.613281 -1.09375 8.71875 -0.5625 C 7.820312 -0.0390625 6.789062 0.21875 5.625 0.21875 Z M 6.078125 -1.296875 C 6.941406 -1.296875 7.613281 -1.628906 8.09375 -2.296875 C 8.570312 -2.972656 8.8125 -3.925781 8.8125 -5.15625 C 8.8125 -6.71875 8.554688 -7.910156 8.046875 -8.734375 C 7.535156 -9.554688 6.8125 -9.96875 5.875 -9.96875 C 5.03125 -9.96875 4.367188 -9.628906 3.890625 -8.953125 C 3.421875 -8.285156 3.1875 -7.34375 3.1875 -6.125 C 3.1875 -4.5625 3.4375 -3.363281 3.9375 -2.53125 C 4.445312 -1.707031 5.160156 -1.296875 6.078125 -1.296875 Z M 6.078125 -1.296875 "/></g></g></g></svg>