<svg width="20" height="20" viewBox="0 0 20 20" fill="none" xmlns="http://www.w3.org/2000/svg">
<path d="M13.6834 6.62498C15.7167 8.65831 15.7167 11.9583 13.6834 13.9916C11.65 16.0249 8.35002 16.0249 6.31669 13.9916C4.28335 11.9583 4.28335 8.65831 6.31669 6.62498C8.35002 4.59164 11.65 4.59164 13.6834 6.62498Z" stroke="#E1E1E1" strokeWidth="1.5" strokeLinecap="round" strokeLinejoin="round"/>
<path d="M6.875 18.0334C5.20833 17.3667 3.74999 16.1584 2.78333 14.4834C1.83333 12.8417 1.51666 11.0167 1.74166 9.27502" stroke="#E1E1E1" strokeWidth="1.5" strokeLinecap="round" strokeLinejoin="round"/>
<path d="M4.875 3.73334C6.29167 2.625 8.06666 1.96667 10 1.96667C11.8917 1.96667 13.6333 2.60833 15.0333 3.675" stroke="#E1E1E1" strokeWidth="1.5" strokeLinecap="round" strokeLinejoin="round"/>
<path d="M13.125 18.0334C14.7917 17.3667 16.25 16.1584 17.2167 14.4834C18.1667 12.8417 18.4833 11.0167 18.2583 9.27502" stroke="#E1E1E1" strokeWidth="1.5" strokeLinecap="round" strokeLinejoin="round"/>
</svg>
