<svg width="16" height="13" viewBox="0 0 16 13" fill="none" xmlns="http://www.w3.org/2000/svg">
<path d="M11.6599 4.14123C12.1506 3.65821 12.6378 2.53118 10.5932 3.89972C7.68806 5.8729 4.82472 7.72534 4.82472 7.72534C4.52997 7.85653 4.21133 7.92772 3.88792 7.93464C3.56452 7.94155 3.24304 7.88405 2.94278 7.76559C1.71602 7.40333 0.283898 6.92031 0.283898 6.92031C0.283898 6.92031 -0.69396 6.31567 0.979955 5.67165C0.979955 5.67165 8.05698 2.81293 10.5114 1.80578C11.4519 1.40327 14.6424 0.115225 14.6424 0.115225C14.6424 0.115225 16.1154 -0.449167 15.9927 0.92025C15.9518 1.48377 15.6247 3.45783 15.2976 5.59115C14.806 8.61086 14.2744 11.9132 14.2744 11.9132C14.2744 11.9132 14.1926 12.839 13.4974 13C12.7533 12.9876 12.0342 12.7328 11.4528 12.2755C11.2892 12.1547 8.38501 10.3425 7.32092 9.45702C7.21268 9.38484 7.12474 9.28689 7.06529 9.17227C7.00583 9.05766 6.9768 8.9301 6.98088 8.80148C6.98496 8.67285 7.02202 8.54733 7.08863 8.43659C7.15523 8.32585 7.24921 8.23349 7.36181 8.1681C8.83749 6.83981 10.5967 5.18863 11.6599 4.14123Z" fill="black"/>
</svg>
