<svg width="21" height="20" viewBox="0 0 21 20" fill="none" xmlns="http://www.w3.org/2000/svg">
<path d="M2.13257 9.13392C1.72876 9.13505 1.33353 9.25048 0.992591 9.46687C0.651653 9.68325 0.378946 9.99175 0.206019 10.3567C0.0330923 10.7216 -0.0329867 11.128 0.0154269 11.5289C0.0638405 11.9298 0.224768 12.3088 0.479591 12.622L5.91183 19.2765C6.10552 19.517 6.35379 19.7078 6.63603 19.8331C6.91827 19.9584 7.22633 20.0145 7.53462 19.9968C8.19397 19.9614 8.78926 19.6087 9.16879 19.0287L20.4529 0.855659C20.4548 0.852644 20.4567 0.84963 20.4587 0.84666C20.5646 0.684093 20.5302 0.36193 20.3117 0.159542C20.2517 0.103964 20.1809 0.061265 20.1037 0.0340739C20.0266 0.00688283 19.9446 -0.00422434 19.863 0.00143671C19.7814 0.00709776 19.7018 0.0294072 19.6292 0.0669908C19.5565 0.104574 19.4923 0.156636 19.4405 0.219971C19.4365 0.22495 19.4323 0.229855 19.428 0.234684L8.04778 13.0926C8.00448 13.1415 7.95189 13.1814 7.89306 13.2098C7.83423 13.2382 7.77034 13.2547 7.70509 13.2582C7.63985 13.2618 7.57455 13.2523 7.513 13.2304C7.45145 13.2085 7.39487 13.1745 7.34654 13.1305L3.56966 9.69356C3.1774 9.33398 2.66471 9.13432 2.13257 9.13392Z" fill="white"/>
</svg>
