<svg width="25" height="20" viewBox="0 0 25 20" fill="none" xmlns="http://www.w3.org/2000/svg">
<path d="M23.0052 2.32604L25 0.417708V0H18.0896L13.1646 12.2583L7.56146 0H0.315625V0.417708L2.64583 3.22292C2.87292 3.43021 2.99167 3.73333 2.96146 4.03854V15.0625C3.03333 15.4594 2.90417 15.8677 2.625 16.1563L0 19.3375V19.75H7.44271V19.3323L4.81771 16.1563C4.53333 15.8667 4.39896 15.4656 4.45625 15.0625V5.52708L10.9896 19.7552H11.749L17.3667 5.52708V16.8615C17.3667 17.1604 17.3667 17.2219 17.1708 17.4177L15.15 19.3729V19.7917H24.9542V19.374L23.0063 17.4667C22.8354 17.3375 22.7469 17.1208 22.7833 16.9104V2.88229C22.7469 2.67083 22.8344 2.45417 23.0052 2.32604Z" fill="#9F9F9F"/>
</svg>
