<svg width="24" height="21" viewBox="0 0 24 21" fill="none" xmlns="http://www.w3.org/2000/svg">
<path d="M6.07593 16.7046C4.51947 16.7046 3.13498 15.7261 2.63224 14.2695L2.59824 14.1598C2.47968 13.774 2.43001 13.4496 2.43001 13.125V6.61688L0.0713788 14.3468C-0.231973 15.4837 0.459292 16.6624 1.61911 16.9765L16.653 20.9294C16.8406 20.9771 17.0283 21 17.2131 21C18.1813 21 19.0661 20.369 19.3141 19.4392L20.19 16.7046H6.07593Z" fill="white"/>
<path d="M8.74966 6.6819C9.82207 6.6819 10.694 5.82564 10.694 4.77276C10.694 3.71987 9.82207 2.86362 8.74966 2.86362C7.67725 2.86362 6.80511 3.71987 6.80511 4.77276C6.80511 5.82564 7.67725 6.6819 8.74966 6.6819Z" fill="white"/>
<path d="M20.9026 0H6.31893C4.9793 0 3.88838 1.07106 3.88838 2.38647V12.8863C3.88838 14.2017 4.9793 15.2728 6.31893 15.2728H20.9026C22.2424 15.2728 23.3333 14.2017 23.3333 12.8863V2.38647C23.3333 1.07106 22.2424 0 20.9026 0ZM6.31893 1.90914H20.9026C21.1711 1.90914 21.3888 2.1229 21.3888 2.38647V9.16275L18.3175 5.64422C17.9917 5.26914 17.5202 5.06866 17.0137 5.0573C16.5101 5.0601 16.0376 5.27963 15.7148 5.6596L12.1038 9.91483L10.9274 8.76267C10.2625 8.10986 9.1803 8.10986 8.51627 8.76267L5.83293 11.3963V2.38647C5.83293 2.1229 6.05065 1.90914 6.31893 1.90914Z" fill="white"/>
</svg>
