<svg width="28" height="25" viewBox="0 0 28 25" fill="none" xmlns="http://www.w3.org/2000/svg">
<line x1="0.75" y1="3.25" x2="27.25" y2="3.25" stroke="black" stroke-width="1.5" strokeLinecap="round"/>
<path d="M24 3.5C24 5.433 22.433 7 20.5 7C18.567 7 17 5.433 17 3.5C17 1.567 18.567 0 20.5 0C22.433 0 24 1.567 24 3.5ZM18.1696 3.5C18.1696 4.78703 19.213 5.83037 20.5 5.83037C21.787 5.83037 22.8304 4.78703 22.8304 3.5C22.8304 2.21297 21.787 1.16963 20.5 1.16963C19.213 1.16963 18.1696 2.21297 18.1696 3.5Z" fill="black"/>
<circle cx="20.5" cy="3.5" r="2.5" fill="white"/>
<line x1="0.75" y1="21.25" x2="27.25" y2="21.25" stroke="black" stroke-width="1.5" strokeLinecap="round"/>
<path d="M24 21.5C24 23.433 22.433 25 20.5 25C18.567 25 17 23.433 17 21.5C17 19.567 18.567 18 20.5 18C22.433 18 24 19.567 24 21.5ZM18.1696 21.5C18.1696 22.787 19.213 23.8304 20.5 23.8304C21.787 23.8304 22.8304 22.787 22.8304 21.5C22.8304 20.213 21.787 19.1696 20.5 19.1696C19.213 19.1696 18.1696 20.213 18.1696 21.5Z" fill="black"/>
<circle cx="20.5" cy="21.5" r="2.5" fill="white"/>
<line x1="0.75" y1="-0.75" x2="27.25" y2="-0.75" transform="matrix(-1 0 0 1 28 13)" stroke="black" stroke-width="1.5" strokeLinecap="round"/>
<path d="M4 12.5C4 14.433 5.567 16 7.5 16C9.433 16 11 14.433 11 12.5C11 10.567 9.433 9 7.5 9C5.567 9 4 10.567 4 12.5ZM9.83037 12.5C9.83037 13.787 8.78703 14.8304 7.5 14.8304C6.21297 14.8304 5.16963 13.787 5.16963 12.5C5.16963 11.213 6.21297 10.1696 7.5 10.1696C8.78703 10.1696 9.83037 11.213 9.83037 12.5Z" fill="black"/>
<circle r="2.5" transform="matrix(-1 0 0 1 7.5 12.5)" fill="white"/>
</svg>
